# Blender v2.73 (sub 0) OBJ File: 'RockSet.blend'
# www.blender.org
o Icosphere.002
v 0.002077 -0.278836 -0.009844
v 0.955462 0.006036 0.562368
v -0.378429 -0.024141 0.937986
v -1.154746 0.066767 -0.092947
v -0.364410 0.119909 -0.900109
v 0.830052 0.060162 -0.494221
v 0.323374 0.593528 0.921082
v -0.996866 0.664674 0.580393
v -0.986581 0.663710 -0.585260
v 0.297533 0.560217 -0.937536
v 1.173404 0.645809 0.013177
v -0.003962 1.071971 0.000286
v 0.486691 -0.168280 0.293648
v 0.356356 -0.078759 0.887641
v -0.201312 -0.243159 0.519947
v 0.482085 -0.201837 -0.308681
v 1.042071 -0.005743 0.003286
v -0.940995 -0.082587 0.550301
v -0.654834 -0.218042 -0.007386
v -0.910325 0.010211 -0.596282
v -0.202319 -0.164537 -0.544064
v 0.357897 -0.051941 -0.894369
v 1.235443 0.342033 -0.210025
v 1.298668 0.316923 0.340107
v 0.791559 0.349533 0.829756
v -0.000055 0.317029 1.103187
v -0.804793 0.317067 0.892079
v -1.267079 0.362727 0.294044
v -1.215080 0.430360 -0.456601
v -0.801380 0.327280 -0.894345
v 0.019228 0.308002 -1.111698
v 0.721312 0.326427 -0.783969
v 0.981926 0.592384 0.460722
v -0.497002 0.861674 0.908380
v -1.158864 0.725775 -0.007767
v -0.362458 0.708251 -0.898287
v 0.833392 0.641137 -0.442863
v 0.584648 0.832450 0.003108
v 0.206291 0.942991 0.561781
v -0.584868 0.968716 0.341023
v -0.582350 0.966080 -0.340739
v 0.166214 0.874890 -0.454536
vt 0.207990 0.185173
vt 0.106738 0.233059
vt 0.121794 0.102514
vt 0.010298 0.286371
vt 0.110157 0.356274
vt 0.256608 0.091294
vt 0.320139 0.217536
vt 0.223067 0.292450
vt 0.010496 0.380752
vt 0.811689 0.302155
vt 0.715321 0.373383
vt 0.696915 0.241068
vt 0.577157 0.665703
vt 0.647277 0.762305
vt 0.494911 0.750374
vt 0.557917 0.445423
vt 0.586140 0.550221
vt 0.483178 0.489087
vt 0.204107 0.449560
vt 0.321859 0.489313
vt 0.203686 0.545968
vt 0.492176 0.000000
vt 0.604964 0.032970
vt 0.492039 0.110085
vt 0.827790 0.173152
vt 0.453612 0.608663
vt 0.504148 0.373383
vt 0.077079 0.466385
vt 0.477209 0.221987
vt 0.603514 0.137646
vt 0.578100 0.308256
vt 0.998730 0.506122
vt 1.000000 0.632429
vt 0.891854 0.566860
vt 0.786987 0.373383
vt 0.897281 0.423223
vt 0.768493 0.488529
vt 0.222888 0.652240
vt 0.256335 0.744227
vt 0.117618 0.710402
vt 0.000000 0.533416
vt 0.092443 0.592665
vt 0.025728 0.632334
vt 0.000000 0.158152
vt 0.045983 0.047345
vt 0.218249 0.380533
vt 0.679921 0.632117
vt 0.166901 0.000000
vt 0.659659 0.492584
vt 0.377741 0.129197
vt 0.336941 0.344390
vt 0.629563 0.377976
vt 0.005354 0.417220
vt 0.131751 0.380752
vt 0.377741 0.194066
vt 0.377928 0.052649
vt 0.926366 0.109864
vt 0.825430 0.054173
vt 0.926682 0.265044
vt 0.384360 0.566640
vt 0.318019 0.624426
vt 0.696915 0.116106
vt 0.703415 0.046512
vt 0.452294 0.373383
vt 0.377741 0.689139
vt 0.999839 0.404285
vt 0.377862 0.452213
vt 0.678256 0.223305
vt 0.666930 0.343687
vt 0.877034 0.696165
vt 0.776446 0.617125
vt 0.703404 0.566584
vt 0.679921 0.426347
vt 0.040980 0.744116
vn 0.036000 -0.998600 -0.039200
vn 0.230500 -0.966200 0.115300
vn -0.040700 -0.970000 0.239700
vn 0.562500 -0.689700 0.456000
vn 0.605100 -0.789200 -0.104700
vn -0.275900 -0.958400 -0.073100
vn -0.110200 -0.924300 -0.365500
vn 0.261200 -0.950300 -0.169100
vn 0.945500 -0.043600 0.322500
vn -0.202700 -0.616800 0.760500
vn 0.246300 -0.701300 0.668900
vn 0.058000 -0.012900 0.998200
vn -0.783800 -0.613200 -0.097800
vn -0.584100 -0.708700 0.395700
vn -0.962000 -0.027600 0.271600
vn -0.208300 -0.651400 -0.729600
vn -0.519200 -0.705000 -0.483200
vn -0.491600 -0.081100 -0.867000
vn 0.611500 -0.632100 -0.475800
vn 0.265800 -0.676300 -0.687000
vn 0.637300 0.050000 -0.768900
vn 0.537200 0.131200 0.833200
vn -0.557500 -0.076200 0.826600
vn -0.912300 0.060100 -0.405000
vn 0.032600 -0.056600 -0.997800
vn 0.904000 -0.056200 -0.423800
vn 0.308700 0.530600 0.789400
vn 0.531300 0.716100 0.452700
vn 0.254200 0.898300 0.358300
vn -0.700900 0.528800 0.478600
vn -0.237700 0.683400 0.690200
vn -0.280000 0.948600 0.147100
vn -0.577500 0.618900 -0.532300
vn -0.748700 0.662800 -0.002400
vn -0.232700 0.935900 -0.264400
vn 0.319500 0.564900 -0.760800
vn -0.133900 0.668200 -0.731800
vn 0.216600 0.899200 -0.380100
vn 0.686700 0.723900 -0.066200
vn 0.504600 0.720800 -0.475100
vn 0.357600 0.932400 -0.052200
vn 0.119300 0.990500 -0.068300
s 1
f 1/1/1 13/2/2 15/3/3
f 2/4/4 13/2/2 17/5/5
f 1/1/1 15/3/3 19/6/6
f 1/1/1 19/6/6 21/7/7
f 1/1/1 21/7/7 16/8/8
f 2/4/4 17/5/5 24/9/9
f 3/10/10 14/11/11 26/12/12
f 4/13/13 18/14/14 28/15/15
f 5/16/16 20/17/17 30/18/18
f 6/19/19 22/20/20 32/21/21
f 2/22/4 24/23/9 25/24/22
f 3/10/10 26/12/12 27/25/23
f 4/13/13 28/15/15 29/26/24
f 5/16/16 30/18/18 31/27/25
f 6/19/19 32/21/21 23/28/26
f 7/29/27 33/30/28 39/31/29
f 8/32/30 34/33/31 40/34/32
f 9/35/33 35/36/34 41/37/35
f 10/38/36 36/39/37 42/40/38
f 11/41/39 37/42/40 38/43/41
f 15/3/3 14/44/11 3/45/10
f 15/3/3 13/2/2 14/44/11
f 13/2/2 2/4/4 14/44/11
f 17/5/5 16/8/8 6/46/19
f 17/5/5 13/2/2 16/8/8
f 13/2/2 1/1/1 16/8/8
f 19/47/6 18/14/14 4/13/13
f 19/6/6 15/3/3 18/48/14
f 15/3/3 3/45/10 18/48/14
f 21/49/7 20/17/17 5/16/16
f 21/7/7 19/6/6 20/50/17
f 19/47/6 4/13/13 20/17/17
f 16/8/8 22/51/20 6/46/19
f 16/8/8 21/7/7 22/51/20
f 21/49/7 5/16/16 22/52/20
f 24/53/9 23/28/26 11/41/39
f 24/53/9 17/54/5 23/28/26
f 17/54/5 6/19/19 23/28/26
f 26/55/12 25/24/22 7/29/27
f 26/55/12 14/56/11 25/24/22
f 14/56/11 2/22/4 25/24/22
f 28/57/15 27/25/23 8/58/30
f 28/57/15 18/59/14 27/25/23
f 18/59/14 3/10/10 27/25/23
f 30/18/18 29/26/24 9/60/33
f 30/18/18 20/17/17 29/26/24
f 20/17/17 4/13/13 29/26/24
f 32/21/21 31/61/25 10/38/36
f 32/21/21 22/20/20 31/61/25
f 22/52/20 5/16/16 31/27/25
f 25/24/22 33/30/28 7/29/27
f 25/24/22 24/23/9 33/30/28
f 24/23/9 11/62/39 33/30/28
f 27/25/23 34/63/31 8/58/30
f 27/25/23 26/12/12 34/63/31
f 26/55/12 7/29/27 34/64/31
f 29/26/24 35/65/34 9/60/33
f 29/26/24 28/15/15 35/65/34
f 28/66/15 8/32/30 35/36/34
f 31/61/25 36/39/37 10/38/36
f 31/27/25 30/18/18 36/67/37
f 30/18/18 9/60/33 36/67/37
f 23/28/26 37/42/40 11/41/39
f 23/28/26 32/21/21 37/42/40
f 32/21/21 10/38/36 37/42/40
f 39/31/29 38/68/41 12/69/42
f 39/31/29 33/30/28 38/68/41
f 33/30/28 11/62/39 38/68/41
f 40/34/32 39/70/29 12/71/42
f 40/34/32 34/33/31 39/70/29
f 34/64/31 7/29/27 39/31/29
f 41/37/35 40/34/32 12/71/42
f 41/37/35 35/36/34 40/34/32
f 35/36/34 8/32/30 40/34/32
f 42/72/38 41/37/35 12/71/42
f 42/72/38 36/73/37 41/37/35
f 36/73/37 9/35/33 41/37/35
f 38/43/41 42/40/38 12/74/42
f 38/43/41 37/42/40 42/40/38
f 37/42/40 10/38/36 42/40/38
