# Blender v2.73 (sub 0) OBJ File: 'RockSet.blend'
# www.blender.org
o Cube_Cube.001
v -1.000000 -0.005438 0.733454
v -1.000000 -0.005438 -0.733454
v 0.939234 0.081727 -0.755122
v 1.000192 -0.005119 0.732686
v -0.995829 0.668176 0.721163
v -0.986250 0.675416 -0.718120
v 0.913426 0.740823 -0.692249
v 1.002571 0.679320 0.712255
v -1.126353 0.645914 0.148436
v -1.156069 0.733018 -0.241278
v -1.158945 0.451141 -0.850033
v -1.158945 0.222852 -0.850033
v -1.158945 -0.059866 -0.244485
v -1.158945 -0.059866 0.244485
v -1.158945 0.222852 0.850033
v -1.158945 0.451141 0.850033
v -0.333333 0.733858 -0.850032
v 0.324104 0.740402 -0.845640
v 1.009910 0.557415 -0.779774
v 1.002123 0.375568 -0.823038
v 0.322377 -0.044047 -0.854057
v -0.325713 0.002309 -0.866213
v 1.118910 0.727332 -0.266389
v 1.158945 0.733858 0.244485
v 1.160149 0.454248 0.844465
v 1.170746 0.251379 0.796773
v 1.158934 -0.059850 0.244481
v 1.138107 -0.029780 -0.252139
v 0.344144 0.733398 0.760907
v -0.332301 0.733814 0.841521
v -0.333334 -0.059866 0.850034
v 0.337156 -0.059939 0.839055
v -1.420714 0.469283 0.308483
v -1.420714 0.204709 0.308483
v -1.420714 0.469283 -0.308483
v -1.420714 0.204709 -0.308483
v -0.420590 0.469283 -1.042029
v -0.420590 0.204709 -1.042029
v 0.335340 0.529737 -1.001453
v 0.378846 0.248444 -1.038384
v 1.366027 0.508506 -0.282963
v 1.366990 0.272884 -0.317438
v 1.420715 0.469286 0.308479
v 1.422689 0.209808 0.299350
v 0.422212 0.469238 1.034158
v 0.467790 0.203875 0.906419
v -0.420590 0.469283 1.042029
v -0.417479 0.204649 1.033094
v -0.386315 -0.149504 0.308483
v 0.386315 -0.149504 0.308483
v -0.386291 -0.149305 -0.308535
v 0.384764 -0.147266 -0.309053
v 0.386806 0.823475 0.304431
v -0.386316 0.823498 0.308485
v 0.386315 0.823496 -0.308483
v -0.385653 0.823303 -0.307745
vt 0.456535 0.230860
vt 0.457451 0.338782
vt 0.357572 0.315244
vt 0.766740 0.463001
vt 0.674238 0.517901
vt 0.683407 0.392865
vt 0.672449 0.144225
vt 0.674514 0.034546
vt 0.767113 0.000000
vt 0.224773 0.106021
vt 0.217789 0.000000
vt 0.315836 0.024256
vt 0.119086 0.573606
vt 0.117079 0.680588
vt 0.016447 0.659886
vt 0.555786 0.445752
vt 0.543727 0.339077
vt 0.641598 0.360180
vt 0.456913 0.107914
vt 0.339143 0.120306
vt 0.358469 0.022925
vt 0.338844 0.217746
vt 0.641839 0.026243
vt 0.635306 0.140355
vt 0.568255 0.108255
vt 0.458491 0.000000
vt 0.672449 0.218130
vt 0.567878 0.231202
vt 0.643773 0.313066
vt 0.553523 0.339077
vt 0.883613 0.444761
vt 0.868973 0.359157
vt 0.966704 0.356837
vt 0.774279 0.339077
vt 0.963713 0.647428
vt 0.869032 0.671395
vt 0.883266 0.557657
vt 0.990319 0.453798
vt 0.772950 0.673847
vt 0.772509 0.583226
vt 0.685941 0.674413
vt 0.672605 0.595693
vt 0.892089 0.127978
vt 0.866898 0.001775
vt 0.973289 0.038485
vt 0.766695 0.114771
vt 0.905485 0.322586
vt 0.896362 0.228668
vt 0.999931 0.239448
vt 0.804439 0.336588
vt 0.777110 0.225017
vt 0.710721 0.324335
vt 0.672651 0.231348
vt 0.225959 0.236669
vt 0.338844 0.218051
vt 0.316155 0.316109
vt 0.338605 0.120093
vt 0.024223 0.317591
vt 0.000748 0.221023
vt 0.112061 0.228872
vt 0.119607 0.338742
vt 0.000000 0.121382
vt 0.111811 0.105809
vt 0.028482 0.025890
vt 0.120382 0.000299
vt 0.119061 0.450653
vt 0.000186 0.463121
vt 0.016866 0.364902
vt 0.000000 0.561569
vt 0.300193 0.362151
vt 0.328475 0.460105
vt 0.228490 0.449648
vt 0.116546 0.343640
vt 0.328508 0.557487
vt 0.228508 0.572528
vt 0.300293 0.654296
vt 0.203984 0.681502
vt 0.562982 0.568310
vt 0.672605 0.531571
vt 0.659731 0.646423
vt 0.670675 0.453090
vt 0.368136 0.661738
vt 0.338844 0.569598
vt 0.450253 0.574149
vt 0.463563 0.665311
vt 0.338923 0.467697
vt 0.443260 0.452239
vt 0.363690 0.381119
vt 0.447824 0.345548
vt 0.554563 0.000295
vt 0.990020 0.551211
vt 1.000000 0.161394
vt 0.992074 0.319465
vt 0.206417 0.340580
vt 0.211500 0.340580
vt 0.563075 0.675527
vn -0.907200 -0.366300 -0.206700
vn -0.611600 -0.311800 -0.727100
vn -0.335900 -0.813800 -0.474100
vn 0.159500 -0.205500 -0.965500
vn 0.582800 -0.041900 -0.811500
vn 0.461100 -0.644300 -0.610100
vn 0.613200 -0.332300 0.716600
vn 0.373100 -0.734000 0.567400
vn 0.462100 -0.882200 0.090400
vn -0.100300 -0.319200 0.942400
vn -0.609300 -0.313000 0.728500
vn -0.348500 -0.807700 0.475500
vn 0.094500 -0.989300 -0.111500
vn 0.098300 -0.821000 -0.562300
vn -0.081800 0.994300 -0.068200
vn -0.080900 0.845400 -0.527900
vn -0.337500 0.823900 -0.455200
vn -0.907200 -0.366300 0.206700
vn -0.446200 -0.888300 0.108300
vn -0.446200 -0.888400 -0.108400
vn -0.352500 0.843600 0.404900
vn -0.389000 0.917600 0.081700
vn -0.870300 0.457600 0.182000
vn -0.448800 0.893600 0.003600
vn -0.900200 0.394700 -0.184100
vn -0.605700 0.335200 -0.721600
vn -0.097300 -0.341700 -0.934700
vn -0.048700 -0.830800 -0.554400
vn -0.115300 0.307200 -0.944600
vn 0.067000 0.841700 -0.535700
vn 0.126400 0.370700 -0.920100
vn 0.376400 0.813200 -0.443900
vn 0.588200 0.383800 -0.711800
vn 0.898600 -0.266500 -0.348600
vn 0.487900 -0.847400 -0.209200
vn 0.912400 -0.369400 0.176300
vn 0.440300 0.886700 -0.141300
vn 0.872600 0.399600 -0.280900
vn 0.447400 0.889100 0.096500
vn 0.916000 0.355300 0.186000
vn 0.336100 0.821700 0.460300
vn 0.585200 0.238600 0.775000
vn 0.167800 -0.352800 0.920500
vn 0.106300 -0.761700 0.639100
vn -0.064500 -0.839500 0.539500
vn 0.072800 0.892100 0.445900
vn 0.154100 0.190900 0.969400
vn -0.062000 0.853100 0.518000
vn -0.121700 0.307600 0.943700
vn -0.605500 0.333500 0.722600
vn 0.065100 -0.994800 0.078200
vn -0.059100 -0.994700 0.083900
vn -0.055800 -0.991600 -0.116200
vn -0.100400 0.992200 0.073900
vn 0.059400 0.993700 0.094600
vn 0.052500 0.996500 -0.065600
s 1
f 36/1/1 12/2/2 2/3/3
f 40/4/4 20/5/5 3/6/6
f 26/7/7 4/8/8 27/9/9
f 48/10/10 15/11/11 1/12/12
f 52/13/13 21/14/14 3/15/6
f 56/16/15 17/17/16 6/18/17
f 34/19/18 14/20/19 1/21/12
f 36/1/1 13/22/20 14/20/19
f 5/23/21 9/24/22 33/25/23
f 33/25/23 34/19/18 15/26/11
f 9/24/22 10/27/24 35/28/25
f 35/28/25 36/1/1 34/19/18
f 6/29/17 11/30/26 35/28/25
f 11/30/26 12/2/2 36/1/1
f 38/31/27 22/32/28 2/33/3
f 40/4/4 21/34/14 22/32/28
f 6/35/17 17/36/16 37/37/29
f 37/37/29 38/31/27 12/38/2
f 17/36/16 18/39/30 39/40/31
f 39/40/31 40/4/4 38/31/27
f 7/41/32 19/42/33 39/40/31
f 39/40/31 19/42/33 20/5/5
f 42/43/34 28/44/35 3/45/6
f 44/46/36 27/9/9 28/44/35
f 23/47/37 41/48/38 19/49/33
f 19/49/33 41/48/38 42/43/34
f 24/50/39 43/51/40 41/48/38
f 41/48/38 43/51/40 44/46/36
f 8/52/41 25/53/42 43/51/40
f 43/51/40 25/53/42 26/7/7
f 46/54/43 32/55/44 4/56/8
f 48/10/10 31/57/45 32/55/44
f 8/58/41 29/59/46 45/60/47
f 25/61/42 45/60/47 46/54/43
f 30/62/48 47/63/49 45/60/47
f 45/60/47 47/63/49 48/10/10
f 5/64/21 16/65/50 47/63/49
f 47/63/49 16/65/50 15/11/11
f 50/66/51 27/67/9 4/68/8
f 50/66/51 52/13/13 28/69/35
f 1/70/12 14/71/19 49/72/52
f 49/72/52 50/66/51 32/73/44
f 13/74/20 51/75/53 49/72/52
f 49/72/52 51/75/53 52/13/13
f 2/76/3 22/77/28 51/75/53
f 51/75/53 22/77/28 21/14/14
f 54/78/54 9/79/22 5/80/21
f 56/16/15 10/81/24 9/79/22
f 8/82/41 24/83/39 53/84/55
f 29/85/46 53/84/55 54/78/54
f 23/86/37 55/87/56 53/84/55
f 53/84/55 55/87/56 56/16/15
f 7/88/32 18/89/30 55/87/56
f 18/89/30 17/17/16 56/16/15
f 13/22/20 36/1/1 2/3/3
f 21/34/14 40/4/4 3/6/6
f 44/46/36 26/7/7 27/9/9
f 31/57/45 48/10/10 1/12/12
f 28/69/35 52/13/13 3/15/6
f 10/81/24 56/16/15 6/18/17
f 15/26/11 34/19/18 1/21/12
f 34/19/18 36/1/1 14/20/19
f 16/90/50 5/23/21 33/25/23
f 16/90/50 33/25/23 15/26/11
f 33/25/23 9/24/22 35/28/25
f 33/25/23 35/28/25 34/19/18
f 10/27/24 6/29/17 35/28/25
f 35/28/25 11/30/26 36/1/1
f 12/38/2 38/31/27 2/33/3
f 38/31/27 40/4/4 22/32/28
f 11/91/26 6/35/17 37/37/29
f 11/91/26 37/37/29 12/38/2
f 37/37/29 17/36/16 39/40/31
f 37/37/29 39/40/31 38/31/27
f 18/39/30 7/41/32 39/40/31
f 40/4/4 39/40/31 20/5/5
f 20/92/5 42/43/34 3/45/6
f 42/43/34 44/46/36 28/44/35
f 7/93/32 23/47/37 19/49/33
f 20/92/5 19/49/33 42/43/34
f 23/47/37 24/50/39 41/48/38
f 42/43/34 41/48/38 44/46/36
f 24/50/39 8/52/41 43/51/40
f 44/46/36 43/51/40 26/7/7
f 26/94/7 46/54/43 4/56/8
f 46/54/43 48/10/10 32/55/44
f 25/61/42 8/58/41 45/60/47
f 26/94/7 25/61/42 46/54/43
f 29/59/46 30/62/48 45/60/47
f 46/54/43 45/60/47 48/10/10
f 30/62/48 5/64/21 47/63/49
f 48/10/10 47/63/49 15/11/11
f 32/73/44 50/66/51 4/68/8
f 27/67/9 50/66/51 28/69/35
f 31/95/45 1/70/12 49/72/52
f 31/95/45 49/72/52 32/73/44
f 14/71/19 13/74/20 49/72/52
f 50/66/51 49/72/52 52/13/13
f 13/74/20 2/76/3 51/75/53
f 52/13/13 51/75/53 21/14/14
f 30/96/48 54/78/54 5/80/21
f 54/78/54 56/16/15 9/79/22
f 29/85/46 8/82/41 53/84/55
f 30/96/48 29/85/46 54/78/54
f 24/83/39 23/86/37 53/84/55
f 54/78/54 53/84/55 56/16/15
f 23/86/37 7/88/32 55/87/56
f 55/87/56 18/89/30 56/16/15
