# Blender v2.73 (sub 0) OBJ File: 'Rock1.blend'
# www.blender.org
o Cube
v 0.896930 -0.116701 -1.078061
v 0.736314 -0.076033 1.066762
v -1.052088 -0.064600 0.954513
v -0.692441 -0.114299 -0.835835
v 1.303753 1.083753 -1.023542
v 0.444005 1.032712 1.513821
v -1.019775 1.174950 1.105961
v -0.681862 1.180458 -1.481573
v 1.045407 -0.157597 -0.147996
v 0.067265 -0.072713 -0.783522
v 1.200361 0.538245 -1.221685
v -0.154563 -0.114500 1.228987
v 1.155268 0.478039 1.381585
v -1.094633 -0.254018 -0.118459
v -1.648060 0.452009 0.853586
v -1.185727 0.481559 -1.133555
v 0.975431 1.246558 0.047895
v 0.105258 1.126820 -1.585067
v -0.344848 1.152380 1.730000
v -1.177093 1.303243 0.009798
v -0.015789 -0.312706 -0.060242
v 0.046107 1.351565 -0.253730
v 1.175182 0.692469 0.169032
v 0.260077 0.452640 1.365451
v -1.648881 0.429819 -0.064031
v -0.199824 0.336820 -1.536424
v 1.008866 -0.126459 0.470257
v -0.321458 -0.060305 -0.702046
v 1.385825 0.807576 -1.181814
v -0.537873 -0.057997 1.154378
v 0.936321 0.677546 1.426494
v -0.862364 -0.219203 -0.537108
v -1.281588 0.883991 1.218077
v -0.974527 0.926074 -1.431442
v 0.808457 1.346412 0.902078
v -0.174992 1.147173 -1.801163
v -0.610285 1.147948 1.327881
v -1.356023 1.245036 -0.716849
v 1.042022 -0.190494 -0.637866
v 0.468949 -0.142859 -1.026806
v 1.081272 0.175115 -1.287556
v 0.243586 -0.141476 1.191072
v 1.014587 0.183491 1.312948
v -1.155731 -0.217847 0.459469
v -1.571341 0.110279 0.770709
v -1.063276 0.074521 -1.015607
v 1.231954 1.216866 -0.594471
v 0.770454 1.122192 -1.299703
v -0.065279 1.102928 1.796044
v -1.176430 1.281231 0.646380
v -0.476225 -0.274043 -0.037390
v 0.480423 -0.312115 -0.111060
v 0.172793 -0.188473 -0.532460
v -0.106274 -0.274351 0.595963
v -0.198010 1.360380 0.630818
v 0.062998 1.276304 -0.994314
v 0.611501 1.352344 -0.290780
v -0.603343 1.343584 -0.011276
v 1.267461 0.630730 1.008356
v 1.267107 0.600208 -0.689727
v 1.268899 0.241091 -0.063884
v 1.050912 1.068502 0.197512
v -1.043570 0.402928 1.289593
v 0.667029 0.439932 1.448684
v -0.135120 0.156677 1.505020
v -0.066870 0.652060 1.602193
v -1.759897 0.319614 -0.724614
v -1.646483 0.462612 0.459024
v -1.548443 -0.153801 -0.255587
v -1.483055 1.068517 0.045330
v -0.775458 0.497559 -1.402503
v 0.556317 0.449266 -1.496503
v 0.153226 0.839249 -1.832230
v -0.180515 0.060946 -1.233899
v -0.630920 -0.226328 0.592326
v -0.677921 1.329703 0.698183
v 1.115930 1.067893 0.980967
v -0.944509 0.743625 1.392342
v -1.719440 0.916506 -0.699776
v -0.751048 0.149059 -1.123006
v -0.359688 -0.219676 -0.596748
v 0.548058 -0.284113 -0.657622
v 0.383454 -0.298149 0.533170
v 0.342781 1.370886 0.863692
v 0.801564 1.333314 -0.716665
v -0.544178 1.290048 -0.889409
v 1.347667 0.189763 0.746821
v 1.323792 0.127379 -0.856060
v 1.423543 0.897206 -0.707035
v -0.706694 0.190636 1.346937
v 0.494274 0.153436 1.399456
v 0.524189 0.691410 1.410453
v -1.346437 -0.078697 -0.808084
v -1.550380 0.033513 0.487642
v -1.434319 1.017100 0.746778
v -0.263198 0.916780 -1.716774
v 0.802037 0.850318 -1.528586
v 0.512712 0.114694 -1.198383
vt 0.137636 0.563411
vt 0.058285 0.569867
vt 0.082613 0.506661
vt 0.155028 0.344089
vt 0.206316 0.378186
vt 0.155630 0.402329
vt 0.896175 0.282885
vt 0.854473 0.349296
vt 0.794976 0.248970
vt 0.949240 0.587705
vt 0.944083 0.694636
vt 0.905653 0.682602
vt 0.369246 0.000842
vt 0.489191 0.000000
vt 0.460672 0.063535
vt 0.485748 0.254952
vt 0.512673 0.310590
vt 0.481603 0.323059
vt 0.215363 0.578539
vt 0.223692 0.502410
vt 0.270084 0.523882
vt 0.226456 0.694739
vt 0.220811 0.635843
vt 0.266533 0.646047
vt 0.060049 0.668982
vt 0.053708 0.620010
vt 0.140662 0.629249
vt 0.046020 0.277128
vt 0.115533 0.299946
vt 0.042023 0.402498
vt 0.226136 0.127633
vt 0.165692 0.199396
vt 0.116225 0.149680
vt 0.335575 0.267841
vt 0.258354 0.321530
vt 0.206193 0.274302
vt 0.520455 0.684734
vt 0.477461 0.726331
vt 0.404599 0.713241
vt 0.529375 0.479105
vt 0.539575 0.580737
vt 0.439840 0.553878
vt 0.672331 0.787452
vt 0.683844 0.711964
vt 0.731678 0.707183
vt 0.006598 0.482318
vt 0.054401 0.402498
vt 0.090851 0.431859
vt 0.857058 0.070133
vt 0.855242 0.125920
vt 0.818683 0.137473
vt 0.720806 0.251159
vt 0.693981 0.268226
vt 0.758736 0.168010
vt 0.408067 0.318081
vt 0.348488 0.225548
vt 0.431026 0.176751
vt 0.834672 0.401576
vt 0.821728 0.494375
vt 0.758928 0.488146
vt 0.844101 0.700647
vt 0.766741 0.707183
vt 0.766456 0.640000
vt 0.491069 0.166304
vt 0.642437 0.169965
vt 0.565426 0.199969
vt 0.608937 0.072162
vt 0.619708 0.321108
vt 0.560004 0.310321
vt 0.556413 0.271543
vt 0.152906 0.498683
vt 0.099783 0.387655
vt 0.934356 0.187628
vt 0.870663 0.174892
vt 0.622627 0.581780
vt 0.617335 0.678426
vt 0.662917 0.562066
vt 0.672331 0.661064
vt 0.939564 0.506329
vt 0.916733 0.604517
vt 0.744126 0.821215
vt 0.752056 0.707183
vt 0.791426 0.711743
vt 1.000000 0.606532
vt 0.999879 0.706758
vt 0.336809 0.082005
vt 0.672331 0.596657
vt 0.674914 0.687648
vt 0.447322 0.276247
vt 0.387737 0.801509
vt 0.336809 0.833560
vt 0.336920 0.785916
vt 0.506205 0.350977
vt 0.448079 0.354288
vt 0.559475 0.342029
vt 0.276846 0.583529
vt 0.609960 0.361119
vt 0.324683 0.722893
vt 0.278588 0.749240
vt 0.288525 0.695621
vt 0.218381 0.752553
vt 0.149628 0.688747
vt 0.143231 0.752483
vt 0.069266 0.722735
vt 0.808347 0.361119
vt 0.056221 0.145884
vt 0.085645 0.065345
vt 0.133867 0.094672
vt 0.116277 0.014773
vt 0.187902 0.035191
vt 0.273048 0.064123
vt 0.273683 0.187557
vt 0.316518 0.068429
vt 0.336809 0.140426
vt 0.422948 0.654063
vt 0.336809 0.674909
vt 0.340137 0.610197
vt 0.336833 0.476818
vt 0.422729 0.459207
vt 0.353162 0.419686
vt 0.429528 0.400325
vt 0.517650 0.412671
vt 0.604166 0.482239
vt 0.586459 0.423461
vt 0.646477 0.441109
vt 0.670954 0.491413
vt 0.016271 0.536299
vt 0.000000 0.608449
vt 0.694133 0.143704
vt 0.736508 0.092307
vt 0.012308 0.682984
vt 0.019832 0.742597
vt 0.913859 0.076969
vt 0.907061 0.133559
vt 0.829103 0.182611
vt 0.232244 0.440506
vt 0.291247 0.454530
vt 0.747834 0.361119
vt 0.677773 0.459778
vt 0.130148 0.436240
vt 0.867108 0.417288
vt 0.869574 0.490922
vt 0.853441 0.628842
vt 0.554998 0.057463
vt 0.563922 0.000091
vt 0.207942 0.000000
vt 0.293309 0.025246
vt 0.579472 0.365264
vt 0.639569 0.392860
vt 0.477201 0.361119
vt 0.628288 0.255903
vt 0.693822 0.237100
vt 0.668575 0.311882
vt 0.011393 0.383384
vt 0.744126 0.814485
vt 0.786060 0.070157
vt 0.661203 0.071636
vt 0.791582 0.866218
vt 0.384519 0.726331
vt 0.320949 0.673747
vt 0.000000 0.241327
vt 0.339988 0.536299
vt 0.685316 0.388716
vt 0.582099 0.007382
vt 0.693981 0.150197
vn -0.079600 -0.977900 0.193300
vn -0.195700 -0.838300 0.508800
vn -0.311000 -0.788400 0.530600
vn -0.071100 0.984800 0.158400
vn -0.411200 0.894100 0.177200
vn -0.340800 0.785900 0.515900
vn 0.774600 0.558200 0.297100
vn 0.357300 0.904300 0.233400
vn 0.402300 0.439900 0.802900
vn -0.336700 0.106900 0.935500
vn -0.343000 0.712900 0.611700
vn -0.453900 0.861000 -0.229200
vn -0.323000 0.728500 -0.604000
vn -0.571600 0.144100 -0.807700
vn -0.192800 -0.694500 -0.693200
vn 0.013800 -0.761900 -0.647500
vn 0.054000 -0.820000 -0.569800
vn -0.057000 -0.998100 -0.020300
vn -0.168100 -0.985700 -0.012400
vn -0.085000 -0.963000 -0.255600
vn 0.098700 -0.994400 -0.036700
vn -0.029300 -0.996400 -0.079100
vn -0.111100 -0.957800 -0.265000
vn 0.103700 -0.856100 0.506300
vn -0.117500 -0.857800 0.500400
vn -0.070000 -0.985300 0.156000
vn 0.042500 0.984400 0.170600
vn -0.055600 0.995000 0.082800
vn -0.530400 0.381300 0.757100
vn 0.015400 0.980600 -0.195100
vn -0.012400 0.998400 -0.055200
vn 0.103400 0.994600 -0.007200
vn -0.332700 0.942900 0.014000
vn -0.051700 0.998300 -0.027600
vn 0.948000 0.183100 0.260400
vn 0.737400 -0.042400 0.674000
vn 0.495300 -0.564500 0.660300
vn 0.982000 -0.186400 0.031500
vn 0.973600 0.221600 0.054500
vn 0.981300 -0.189900 0.030900
vn 0.626500 0.777600 0.052300
vn 0.547300 0.826600 0.131300
vn 0.890200 0.437400 0.127100
vn -0.415400 -0.302200 0.858000
vn -0.914000 -0.017000 0.405200
vn -0.756900 -0.530400 0.381800
vn 0.114500 -0.403000 0.908000
vn -0.001400 -0.077900 0.996900
vn 0.059800 -0.140300 0.988300
vn 0.115200 0.340800 0.933000
vn -0.026200 -0.506800 0.861700
vn -0.363400 -0.743400 -0.561500
vn -0.894300 -0.213400 -0.393200
vn -0.532400 -0.273200 -0.801100
vn -0.798200 -0.595400 0.091200
vn -0.998300 0.055200 0.016300
vn -0.993700 -0.003700 0.112200
vn -0.815700 0.569800 0.099700
vn -0.400000 -0.421700 -0.813700
vn 0.235600 -0.480000 -0.845000
vn -0.129100 -0.575200 -0.807700
vn 0.173700 0.009900 -0.984700
vn -0.102400 -0.830700 -0.547100
vn -0.157100 -0.933100 -0.323500
vn -0.111300 -0.851500 -0.512300
vn -0.302900 -0.940400 0.154400
vn 0.390000 0.255700 0.884500
vn -0.601200 0.334400 0.725700
vn -0.885000 0.367700 -0.285400
vn -0.215900 -0.594000 -0.775000
vn 0.046100 -0.896000 -0.441600
vn -0.045500 -0.984200 -0.171200
vn 0.234000 -0.793300 -0.562000
vn 0.511100 -0.857200 -0.062500
vn 0.610200 -0.790700 0.049100
vn 0.119200 -0.983000 0.139500
vn 0.517600 -0.849200 0.104500
vn 0.311600 -0.857800 0.408700
vn 0.148700 0.977300 -0.151100
vn 0.635400 0.678100 -0.369200
vn 0.269000 0.805600 -0.527900
vn 0.256500 0.865000 -0.431200
vn -0.038100 0.991300 -0.125800
vn -0.090700 0.580800 -0.809000
vn 0.920800 -0.359200 0.152200
vn 0.918100 -0.352300 -0.181600
vn 0.476200 -0.412500 -0.776500
vn 0.746900 -0.219400 -0.627600
vn 0.995300 0.041100 0.087400
vn 0.859500 -0.005600 -0.511100
vn -0.240600 -0.297500 0.923900
vn -0.115500 -0.099600 0.988300
vn 0.060900 -0.182200 0.981400
vn -0.654400 -0.756100 -0.005900
vn -0.797800 0.554500 0.236500
vn -0.376000 -0.194200 -0.906000
vn 0.446500 0.193100 -0.873700
vn 0.022200 -0.616900 -0.786700
s 1
f 75/1/1 30/2/2 3/3/3
f 76/4/4 50/5/5 7/6/6
f 77/7/7 35/8/8 6/9/9
f 78/10/10 37/11/11 7/12/6
f 38/13/12 8/14/13 34/15/14
f 80/16/15 28/17/16 4/18/17
f 51/19/18 14/20/19 32/21/20
f 52/22/21 21/23/22 53/24/23
f 42/25/24 12/26/25 54/27/26
f 84/28/27 55/29/28 19/30/29
f 56/31/30 22/32/31 57/33/32
f 38/34/12 20/35/33 58/36/34
f 59/37/35 13/38/36 43/39/37
f 60/40/38 23/41/39 61/42/40
f 47/43/41 17/44/42 62/45/43
f 63/46/44 15/47/45 45/48/46
f 91/49/47 64/50/48 24/51/49
f 49/52/50 19/53/29 66/54/51
f 93/55/52 67/56/53 16/57/54
f 94/58/55 68/59/56 25/60/57
f 50/61/5 20/62/33 70/63/58
f 71/64/59 16/57/54 34/15/14
f 72/65/60 26/66/61 73/67/62
f 40/68/63 10/69/64 74/70/65
f 51/19/18 75/1/1 44/71/66
f 54/27/26 75/1/1 51/19/18
f 54/27/26 12/26/25 30/2/2
f 55/29/28 76/4/4 37/72/11
f 58/36/34 76/4/4 55/29/28
f 20/35/33 50/5/5 76/4/4
f 59/73/35 77/7/7 31/74/67
f 23/41/39 62/75/43 77/76/7
f 62/75/43 17/77/42 35/78/8
f 63/79/44 78/10/10 33/80/68
f 66/81/51 78/82/10 63/83/44
f 66/84/51 19/85/29 37/11/11
f 79/86/69 34/15/14 16/57/54
f 25/60/57 70/63/58 79/87/69
f 70/63/58 20/62/33 38/88/12
f 80/16/15 46/89/70 16/57/54
f 26/66/61 74/70/65 80/16/15
f 74/90/65 10/91/64 28/92/16
f 81/93/71 32/94/20 4/18/17
f 10/69/64 53/95/23 81/93/71
f 21/23/22 51/19/18 81/96/71
f 82/97/72 53/95/23 10/69/64
f 1/98/73 39/99/74 82/100/72
f 9/101/75 52/22/21 82/100/72
f 83/102/76 54/27/26 21/23/22
f 27/103/77 83/102/76 52/22/21
f 2/104/78 42/25/24 83/102/76
f 84/105/27 49/52/50 6/9/9
f 17/106/42 57/33/32 84/28/27
f 22/32/31 55/29/28 84/28/27
f 47/107/41 85/108/79 57/33/32
f 5/109/80 48/110/81 85/108/79
f 48/110/81 18/111/82 56/31/30
f 86/112/83 58/36/34 22/32/31
f 18/111/82 36/113/84 86/112/83
f 8/114/13 38/34/12 86/112/83
f 87/115/85 43/39/37 2/116/78
f 61/42/40 87/115/85 27/117/77
f 23/41/39 59/37/35 87/115/85
f 39/118/74 88/119/86 61/42/40
f 1/120/73 41/121/87 88/119/86
f 11/122/88 60/40/38 88/119/86
f 89/123/89 62/75/43 23/41/39
f 29/124/90 89/123/89 60/40/38
f 5/125/80 47/126/41 89/123/89
f 90/127/91 45/48/46 3/3/3
f 65/128/92 90/127/91 30/2/2
f 24/51/49 63/129/44 90/130/91
f 42/25/24 91/131/47 65/128/92
f 2/104/78 43/132/37 91/131/47
f 43/133/37 13/134/36 64/50/48
f 92/135/93 66/54/51 24/51/49
f 31/74/67 92/135/93 64/50/48
f 6/9/9 49/52/50 92/135/93
f 32/94/20 93/55/52 46/89/70
f 14/20/19 69/136/94 93/137/52
f 69/138/94 25/60/57 67/139/53
f 94/140/55 69/136/94 14/20/19
f 45/48/46 94/140/55 44/71/66
f 45/141/46 15/142/45 68/59/56
f 68/59/56 95/143/95 70/63/58
f 15/142/45 33/80/68 95/143/95
f 7/12/6 50/61/5 95/143/95
f 96/144/96 34/15/14 8/14/13
f 73/67/62 96/144/96 36/145/84
f 26/66/61 71/64/59 96/144/96
f 97/146/97 73/147/62 18/111/82
f 29/124/90 97/148/97 48/149/81
f 11/122/88 72/150/60 97/148/97
f 98/151/98 74/70/65 26/66/61
f 41/152/87 98/151/98 72/65/60
f 1/153/73 40/68/63 98/151/98
f 44/71/66 75/1/1 3/3/3
f 37/72/11 76/4/4 7/6/6
f 31/74/67 77/7/7 6/9/9
f 33/80/68 78/10/10 7/12/6
f 79/86/69 38/13/12 34/15/14
f 46/89/70 80/16/15 4/18/17
f 81/96/71 51/19/18 32/21/20
f 82/100/72 52/22/21 53/24/23
f 83/102/76 42/25/24 54/27/26
f 49/154/50 84/28/27 19/30/29
f 85/108/79 56/31/30 57/33/32
f 86/112/83 38/34/12 58/36/34
f 87/115/85 59/37/35 43/39/37
f 88/119/86 60/40/38 61/42/40
f 89/155/89 47/43/41 62/45/43
f 90/127/91 63/46/44 45/48/46
f 65/156/92 91/49/47 24/51/49
f 92/135/93 49/52/50 66/54/51
f 46/89/70 93/55/52 16/57/54
f 69/138/94 94/58/55 25/60/57
f 95/143/95 50/61/5 70/63/58
f 96/144/96 71/64/59 34/15/14
f 97/157/97 72/65/60 73/67/62
f 98/151/98 40/68/63 74/70/65
f 14/20/19 51/19/18 44/71/66
f 21/23/22 54/27/26 51/19/18
f 75/1/1 54/27/26 30/2/2
f 19/30/29 55/29/28 37/72/11
f 22/32/31 58/36/34 55/29/28
f 58/36/34 20/35/33 76/4/4
f 13/134/36 59/73/35 31/74/67
f 59/37/35 23/41/39 77/76/7
f 77/76/7 62/75/43 35/78/8
f 15/142/45 63/79/44 33/80/68
f 24/158/49 66/81/51 63/83/44
f 78/10/10 66/84/51 37/11/11
f 67/56/53 79/86/69 16/57/54
f 67/139/53 25/60/57 79/87/69
f 79/87/69 70/63/58 38/88/12
f 71/64/59 80/16/15 16/57/54
f 71/64/59 26/66/61 80/16/15
f 80/159/15 74/90/65 28/92/16
f 28/17/16 81/93/71 4/18/17
f 28/17/16 10/69/64 81/93/71
f 53/24/23 21/23/22 81/96/71
f 40/68/63 82/97/72 10/69/64
f 40/160/63 1/98/73 82/100/72
f 39/99/74 9/101/75 82/100/72
f 52/22/21 83/102/76 21/23/22
f 9/101/75 27/103/77 52/22/21
f 27/103/77 2/104/78 83/102/76
f 35/8/8 84/105/27 6/9/9
f 35/161/8 17/106/42 84/28/27
f 57/33/32 22/32/31 84/28/27
f 17/106/42 47/107/41 57/33/32
f 47/107/41 5/109/80 85/108/79
f 85/108/79 48/110/81 56/31/30
f 56/31/30 86/112/83 22/32/31
f 56/31/30 18/111/82 86/112/83
f 36/113/84 8/114/13 86/112/83
f 27/117/77 87/115/85 2/116/78
f 9/162/75 61/42/40 27/117/77
f 61/42/40 23/41/39 87/115/85
f 9/162/75 39/118/74 61/42/40
f 39/118/74 1/120/73 88/119/86
f 41/121/87 11/122/88 88/119/86
f 60/40/38 89/123/89 23/41/39
f 11/122/88 29/124/90 60/40/38
f 29/124/90 5/125/80 89/123/89
f 30/2/2 90/127/91 3/3/3
f 12/26/25 65/128/92 30/2/2
f 65/156/92 24/51/49 90/130/91
f 12/26/25 42/25/24 65/128/92
f 42/25/24 2/104/78 91/131/47
f 91/49/47 43/133/37 64/50/48
f 64/50/48 92/135/93 24/51/49
f 13/134/36 31/74/67 64/50/48
f 31/74/67 6/9/9 92/135/93
f 4/18/17 32/94/20 46/89/70
f 32/21/20 14/20/19 93/137/52
f 93/163/52 69/138/94 67/139/53
f 44/71/66 94/140/55 14/20/19
f 3/3/3 45/48/46 44/71/66
f 94/58/55 45/141/46 68/59/56
f 25/60/57 68/59/56 70/63/58
f 68/59/56 15/142/45 95/143/95
f 33/80/68 7/12/6 95/143/95
f 36/145/84 96/144/96 8/14/13
f 18/164/82 73/67/62 36/145/84
f 73/67/62 26/66/61 96/144/96
f 48/110/81 97/146/97 18/111/82
f 5/125/80 29/124/90 48/149/81
f 29/124/90 11/122/88 97/148/97
f 72/65/60 98/151/98 26/66/61
f 11/165/88 41/152/87 72/65/60
f 41/152/87 1/153/73 98/151/98
