# Blender v2.73 (sub 0) OBJ File: 'RockSet.blend'
# www.blender.org
o Icosphere.001
v 0.069174 -0.142253 -0.074198
v 1.090190 -0.002919 0.790315
v -0.338466 0.071696 1.035141
v -1.343127 0.001154 -0.000522
v -0.382591 0.060571 -1.091795
v 1.097584 0.138986 -0.732699
v 0.407716 0.639318 1.067271
v -0.943235 0.603921 0.645557
v -1.044186 0.632079 -0.762207
v 0.361647 0.652379 -1.072619
v 1.226603 0.699225 -0.064390
v 0.087413 0.946436 -0.014444
v 0.671343 -0.191396 0.418858
v 0.392548 -0.001716 1.051817
v -0.173785 -0.099095 0.574818
v 0.674475 -0.142428 -0.484727
v 1.279461 -0.044651 -0.005262
v -1.016768 -0.045142 0.728605
v -0.689541 -0.111245 -0.040741
v -1.019324 -0.052840 -0.735600
v -0.199298 -0.144617 -0.695207
v 0.365119 0.071209 -0.985075
v 1.314934 0.429850 -0.440665
v 1.414292 0.332384 0.455412
v 0.779654 0.322127 0.966396
v 0.046976 0.325561 1.221145
v -0.729382 0.304229 1.016213
v -1.400237 0.319336 0.445440
v -1.417954 0.323488 -0.446564
v -0.826259 0.324712 -1.141881
v -0.007556 0.371280 -1.286438
v 0.796153 0.462027 -1.090879
v 0.980635 0.706552 0.597006
v -0.314859 0.679175 1.078953
v -1.262932 0.683360 -0.016137
v -0.345752 0.628401 -1.051980
v 0.980629 0.763397 -0.694373
v 0.801380 0.894092 -0.065579
v 0.248174 0.940443 0.692481
v -0.607982 0.905891 0.438366
v -0.547961 0.815705 -0.430030
v 0.268039 0.800315 -0.599006
vt 0.573889 0.240299
vt 0.516462 0.364522
vt 0.452699 0.225238
vt 0.465378 0.444680
vt 0.609159 0.444428
vt 0.536173 0.112488
vt 0.668167 0.168770
vt 0.668330 0.325220
vt 0.710921 0.444680
vt 0.840293 0.457786
vt 0.729457 0.573059
vt 0.320549 0.157507
vt 0.363086 0.280708
vt 0.261443 0.223450
vt 0.921714 0.135623
vt 0.998804 0.241134
vt 0.850727 0.255318
vt 0.606254 0.705944
vt 0.664972 0.811772
vt 0.514898 0.787042
vt 0.580523 0.444680
vt 0.600592 0.574443
vt 0.455463 0.505049
vt 0.360860 0.408793
vt 0.235361 0.482851
vt 0.261281 0.357278
vt 0.234531 0.096367
vt 0.782553 0.114937
vt 0.486373 0.646344
vt 0.954223 0.550516
vt 1.000000 0.679753
vt 0.875244 0.640980
vt 0.157199 0.297471
vt 0.114379 0.412447
vt 0.028193 0.289056
vt 0.104990 0.078468
vt 0.127821 0.174038
vt 0.000000 0.149564
vt 0.201248 0.836679
vt 0.068385 0.842228
vt 0.149939 0.726058
vt 0.316811 0.612931
vt 0.281414 0.731498
vt 0.218998 0.598307
vt 0.794794 0.722890
vt 0.903933 0.770326
vt 0.795222 0.794662
vt 0.392370 0.337824
vt 0.363086 0.211155
vt 0.949610 0.445029
vt 0.390479 0.087507
vt 0.499323 0.000000
vt 0.692243 0.667166
vt 0.638725 0.025445
vt 0.692523 0.512429
vt 0.171273 0.000000
vt 0.914236 0.337575
vt 0.319367 0.048335
vt 0.744625 0.000000
vt 0.668330 0.108933
vt 0.892225 0.008256
vt 0.392637 0.582920
vt 0.692523 0.702948
vt 0.702041 0.236722
vt 0.784659 0.326554
vt 0.407559 0.705829
vt 0.312580 0.842193
vt 0.363086 0.472086
vt 0.000000 0.543790
vt 0.150817 0.482851
vt 0.099982 0.594397
vt 0.000337 0.407321
vt 0.073680 0.475780
vt 0.000894 0.697496
vt 0.679723 0.337033
vt 0.274471 0.487100
vn -0.042600 -0.999100 0.008700
vn 0.094100 -0.987900 0.123100
vn -0.059500 -0.981500 0.181700
vn 0.568400 -0.537200 0.623100
vn 0.702500 -0.706200 -0.087900
vn -0.101200 -0.994700 0.018100
vn -0.005800 -0.968400 -0.249100
vn 0.178100 -0.948100 -0.263500
vn 0.932600 0.100000 0.346700
vn -0.155200 -0.685900 0.710900
vn 0.139000 -0.668000 0.731000
vn 0.013000 -0.062400 0.998000
vn -0.698000 -0.716000 0.010100
vn -0.460200 -0.715400 0.525700
vn -0.899800 0.095400 0.425800
vn -0.076900 -0.700100 -0.709900
vn -0.468500 -0.774700 -0.424500
vn -0.453000 0.015400 -0.891300
vn 0.644600 -0.498100 -0.580000
vn 0.197600 -0.725500 -0.659200
vn 0.465100 0.095500 -0.880100
vn 0.475700 0.127500 0.870300
vn -0.469700 0.020800 0.882500
vn -0.941600 0.029500 -0.335300
vn 0.039200 0.006600 -0.999200
vn 0.931200 0.138500 -0.337000
vn 0.285000 0.515900 0.807900
vn 0.521300 0.719400 0.459000
vn 0.101000 0.941400 0.321800
vn -0.542500 0.647500 0.535100
vn -0.234200 0.594000 0.769600
vn -0.281200 0.940200 0.192000
vn -0.519100 0.707400 -0.479700
vn -0.650700 0.759100 0.021800
vn -0.145200 0.966500 -0.211700
vn 0.082400 0.767400 -0.635800
vn -0.132300 0.788000 -0.601300
vn -0.004100 0.964300 -0.264700
vn 0.701500 0.712600 -0.002700
vn 0.478400 0.768700 -0.424400
vn 0.241700 0.970000 -0.026100
vn -0.012900 0.993400 -0.113900
s 1
f 1/1/1 13/2/2 15/3/3
f 2/4/4 13/2/2 17/5/5
f 1/1/1 15/3/3 19/6/6
f 1/1/1 19/6/6 21/7/7
f 1/1/1 21/7/7 16/8/8
f 2/9/4 17/10/5 24/11/9
f 3/12/10 14/13/11 26/14/12
f 4/15/13 18/16/14 28/17/15
f 5/18/16 20/19/17 30/20/18
f 6/21/19 22/22/20 32/23/21
f 2/24/4 24/25/9 25/26/22
f 3/12/10 26/14/12 27/27/23
f 4/15/13 28/17/15 29/28/24
f 5/18/16 30/20/18 31/29/25
f 6/30/19 32/31/21 23/32/26
f 7/33/27 33/34/28 39/35/29
f 8/36/30 34/37/31 40/38/32
f 9/39/33 35/40/34 41/41/35
f 10/42/36 36/43/37 42/44/38
f 11/45/39 37/46/40 38/47/41
f 15/3/3 14/48/11 3/49/10
f 15/3/3 13/2/2 14/48/11
f 13/2/2 2/4/4 14/48/11
f 17/10/5 16/50/8 6/30/19
f 17/5/5 13/2/2 16/8/8
f 13/2/2 1/1/1 16/8/8
f 19/6/6 18/51/14 4/52/13
f 19/6/6 15/3/3 18/51/14
f 15/3/3 3/49/10 18/51/14
f 21/53/7 20/19/17 5/18/16
f 21/7/7 19/6/6 20/54/17
f 19/6/6 4/52/13 20/54/17
f 16/55/8 22/22/20 6/21/19
f 16/55/8 21/53/7 22/22/20
f 21/53/7 5/18/16 22/22/20
f 24/11/9 23/32/26 11/45/39
f 24/11/9 17/10/5 23/32/26
f 17/10/5 6/30/19 23/32/26
f 26/14/12 25/26/22 7/33/27
f 26/14/12 14/13/11 25/26/22
f 14/13/11 2/24/4 25/26/22
f 28/56/15 27/27/23 8/36/30
f 28/17/15 18/16/14 27/57/23
f 18/58/14 3/12/10 27/27/23
f 30/59/18 29/28/24 9/60/33
f 30/59/18 20/61/17 29/28/24
f 20/61/17 4/15/13 29/28/24
f 32/23/21 31/29/25 10/62/36
f 32/23/21 22/22/20 31/29/25
f 22/22/20 5/18/16 31/29/25
f 25/26/22 33/34/28 7/33/27
f 25/26/22 24/25/9 33/34/28
f 24/11/9 11/45/39 33/63/28
f 27/27/23 34/37/31 8/36/30
f 27/27/23 26/14/12 34/37/31
f 26/14/12 7/33/27 34/37/31
f 29/28/24 35/64/34 9/60/33
f 29/28/24 28/17/15 35/64/34
f 28/17/15 8/65/30 35/64/34
f 31/29/25 36/66/37 10/62/36
f 31/29/25 30/20/18 36/66/37
f 30/67/18 9/39/33 36/43/37
f 23/32/26 37/46/40 11/45/39
f 23/32/26 32/31/21 37/46/40
f 32/23/21 10/62/36 37/68/40
f 39/69/29 38/70/41 12/71/42
f 39/35/29 33/34/28 38/72/41
f 33/34/28 11/73/39 38/72/41
f 40/74/32 39/69/29 12/71/42
f 40/38/32 34/37/31 39/35/29
f 34/37/31 7/33/27 39/35/29
f 41/41/35 40/74/32 12/71/42
f 41/41/35 35/40/34 40/74/32
f 35/64/34 8/65/30 40/75/32
f 42/44/38 41/41/35 12/71/42
f 42/44/38 36/43/37 41/41/35
f 36/43/37 9/39/33 41/41/35
f 38/70/41 42/44/38 12/71/42
f 38/70/41 37/76/40 42/44/38
f 37/76/40 10/42/36 42/44/38
